<?xml version="1.0" encoding="UTF-8"?>
<svg version="1.1" xmlns="http://www.w3.org/2000/svg" width="600" height="183">
<path d="M0 0 C8.9433056 6.94518647 16.03902038 17.34357966 18.28515625 28.59765625 C19.93662943 44.2608472 17.71509594 58.35406014 7.53515625 70.96875 C4.99876129 73.41007768 2.41309401 75.69034991 -0.328125 77.8984375 C-3.25559247 80.73492335 -4.32654245 83.4178428 -4.68847656 87.4765625 C-4.68170898 88.34023437 -4.67494141 89.20390625 -4.66796875 90.09375 C-4.67957031 91.04765625 -4.69117187 92.0015625 -4.703125 92.984375 C-4.7109375 94.97395833 -4.70312355 96.96366436 -4.6796875 98.953125 C-4.80711781 106.20685007 -4.80711781 106.20685007 -7.98046875 109.8828125 C-9.62402344 110.96582031 -9.62402344 110.96582031 -11.46484375 111.96875 C-12.12129883 112.34354492 -12.77775391 112.71833984 -13.45410156 113.10449219 C-15.59409809 114.26138126 -17.7627778 115.31044313 -19.96484375 116.34375 C-21.06505859 116.89482422 -21.06505859 116.89482422 -22.1875 117.45703125 C-26.68703768 119.59008579 -29.54842627 120.60117915 -34.46484375 118.96875 C-37.44035886 117.64637926 -40.2944825 116.15213508 -43.15234375 114.59375 C-43.91095703 114.19414062 -44.66957031 113.79453125 -45.45117188 113.3828125 C-52.41646643 109.64503749 -52.41646643 109.64503749 -54.46484375 106.96875 C-54.84960938 104.59619141 -54.84960938 104.59619141 -54.87109375 101.8203125 C-54.89300781 100.81484375 -54.91492188 99.809375 -54.9375 98.7734375 C-54.94652344 97.72414063 -54.95554687 96.67484375 -54.96484375 95.59375 C-54.66056428 86.67069455 -54.66056428 86.67069455 -58.46484375 78.96875 C-60.47330494 77.07914237 -60.47330494 77.07914237 -62.71484375 75.34375 C-72.31769111 66.99005351 -77.65636768 55.84361236 -78.80859375 43.1953125 C-79.1702798 28.33604401 -75.06880346 15.00333089 -64.75390625 4.0703125 C-46.38628462 -12.79279405 -20.32748044 -13.8051378 0 0 Z M-60.71484375 14.21875 C-67.53917007 22.14247663 -69.86306895 31.42213855 -69.73828125 41.6796875 C-68.93755819 51.31124199 -64.8522685 59.78289716 -58.46484375 66.96875 C-56.43678995 68.63145587 -54.35419083 70.12279727 -52.1953125 71.609375 C-47.86053919 75.01456938 -47.17619351 79.81146424 -46.46484375 84.96875 C-46.21728661 88.09113031 -46.05451864 91.21543336 -45.90234375 94.34375 C-45.85916016 95.17519531 -45.81597656 96.00664062 -45.77148438 96.86328125 C-45.6662257 98.89828228 -45.56511303 100.93349703 -45.46484375 102.96875 C-43.24374847 104.1739722 -41.01505725 105.35762404 -38.77734375 106.53125 C-38.15150391 106.87349609 -37.52566406 107.21574219 -36.88085938 107.56835938 C-34.13427725 108.99198047 -32.02813708 109.98935829 -28.90234375 109.875 C-25.86496354 108.74571761 -23.03185606 107.39347064 -20.15234375 105.90625 C-19.08371094 105.35839844 -18.01507813 104.81054688 -16.9140625 104.24609375 C-15.70169922 103.61380859 -15.70169922 103.61380859 -14.46484375 102.96875 C-14.42746094 101.78539062 -14.39007813 100.60203125 -14.3515625 99.3828125 C-13.55225187 78.6248912 -13.55225187 78.6248912 -8.08984375 72.15625 C-6.79046875 71.0734375 -6.79046875 71.0734375 -5.46484375 69.96875 C2.64329603 62.27641226 8.8623379 53.79302147 9.73828125 42.3046875 C9.93927918 29.60831819 6.5419741 20.56159886 -2.02734375 11.15625 C-2.83171875 10.434375 -3.63609375 9.7125 -4.46484375 8.96875 C-5.20734375 8.288125 -5.94984375 7.6075 -6.71484375 6.90625 C-24.80034824 -5.83580998 -46.12133751 -1.01977309 -60.71484375 14.21875 Z " fill="#FF9900" transform="translate(122.46484375,39.03125)"/>
<path d="M0 0 C1.02158203 0.00708984 2.04316406 0.01417969 3.09570312 0.02148438 C4.6822168 0.07079102 4.6822168 0.07079102 6.30078125 0.12109375 C7.85829102 0.12979492 7.85829102 0.12979492 9.44726562 0.13867188 C27.83614475 0.42689882 27.83614475 0.42689882 34.61328125 6.55859375 C38.98798948 12.34141119 39.52090997 18.50286096 38.61328125 25.55859375 C37.15162458 29.38674217 35.18013211 32.38058792 32.61328125 35.55859375 C33.19078125 35.78546875 33.76828125 36.01234375 34.36328125 36.24609375 C38.17411899 38.46908243 40.23257789 41.41648367 41.61328125 45.55859375 C42.82755989 61.22477881 42.82755989 61.22477881 37.61328125 67.55859375 C29.58901804 75.2849264 19.50656144 74.92317961 8.98828125 74.93359375 C7.67859375 74.95808594 6.36890625 74.98257813 5.01953125 75.0078125 C3.75882813 75.01167969 2.498125 75.01554687 1.19921875 75.01953125 C0.05501465 75.02774902 -1.08918945 75.0359668 -2.26806641 75.04443359 C-6.15539113 74.43884598 -7.62894657 73.3404244 -10.38671875 70.55859375 C-11.02163696 67.64356995 -11.02163696 67.64356995 -11.03369141 64.21704102 C-11.04945221 62.93213272 -11.06521301 61.64722443 -11.08145142 60.32337952 C-11.07250067 58.92391096 -11.06224543 57.52445022 -11.05078125 56.125 C-11.05415104 54.68537486 -11.05900501 53.2457525 -11.0652771 51.80613708 C-11.07264337 48.79064821 -11.06195401 45.77590062 -11.03857422 42.76049805 C-11.01011031 38.90201203 -11.02647397 35.04526673 -11.05643654 31.18684483 C-11.07453919 28.21411622 -11.06873788 25.24179755 -11.05579758 22.26905632 C-11.05247034 20.84694143 -11.05652674 19.42478889 -11.06819534 18.00271797 C-11.08094606 16.0116666 -11.05805273 14.02048418 -11.03369141 12.02954102 C-11.02971344 10.89799088 -11.02573547 9.76644073 -11.02163696 8.6006012 C-9.779416 2.64889697 -5.89298346 -0.08659289 0 0 Z M3.61328125 13.55859375 C3.61328125 19.16859375 3.61328125 24.77859375 3.61328125 30.55859375 C6.15015625 30.64109375 8.68703125 30.72359375 11.30078125 30.80859375 C12.09057373 30.84500977 12.88036621 30.88142578 13.6940918 30.91894531 C17.47895094 30.97828563 19.26115688 30.77721787 22.5703125 28.72265625 C25.2040168 25.93284328 25.61328125 24.38177092 25.61328125 20.55859375 C24.04944191 16.24801515 24.04944191 16.24801515 20.61328125 13.55859375 C17.72754773 13.48659441 14.8726301 13.46588695 11.98828125 13.49609375 C7.84265625 13.52703125 7.84265625 13.52703125 3.61328125 13.55859375 Z M3.61328125 42.55859375 C3.61328125 49.15859375 3.61328125 55.75859375 3.61328125 62.55859375 C7.41859375 62.62046875 7.41859375 62.62046875 11.30078125 62.68359375 C12.09057373 62.70180176 12.88036621 62.72000977 13.6940918 62.73876953 C18.75528502 62.77844509 22.31364874 62.26314592 26.39453125 59.23828125 C28.02793251 56.98711926 28.07966589 55.44845682 28.11328125 52.68359375 C28.1596875 51.41902344 28.1596875 51.41902344 28.20703125 50.12890625 C27.30673329 46.23156376 25.8587208 44.87441436 22.61328125 42.55859375 C19.30998372 41.96695837 16.14261985 42.08536005 12.80078125 42.24609375 C8.25296875 42.40078125 8.25296875 42.40078125 3.61328125 42.55859375 Z " fill="#000000" transform="translate(221.38671875,29.44140625)"/>
<path d="M0 0 C1.70043945 1.13598633 1.70043945 1.13598633 3 3 C3.34057617 5.8190918 3.34057617 5.8190918 3.29296875 9.19921875 C3.28547607 10.28807373 3.2779834 11.37692871 3.27026367 12.4987793 C3.24295166 13.88105713 3.21563965 15.26333496 3.1875 16.6875 C3.125625 21.080625 3.06375 25.47375 3 30 C12.9 30 22.8 30 33 30 C32.92103426 21.95250017 32.92103426 21.95250017 32.81982422 13.90527344 C32.8148291 12.90012695 32.80983398 11.89498047 32.8046875 10.859375 C32.78897705 9.31975098 32.78897705 9.31975098 32.77294922 7.74902344 C33.00428419 4.9481291 33.46759207 3.3359303 35 1 C37.84083641 -0.42041821 39.85477278 -0.31452272 43 0 C45.89204627 2.16264883 46.88973957 3.35897709 47.50793457 6.95298767 C47.51111694 8.10150711 47.51429932 9.25002655 47.51757812 10.43334961 C47.53018677 11.73827866 47.54279541 13.0432077 47.55578613 14.38768005 C47.54862557 15.80924011 47.5404214 17.23079524 47.53125 18.65234375 C47.53394576 20.11438759 47.53782887 21.57642969 47.54284668 23.03846741 C47.54873979 26.10093271 47.54018677 29.16293087 47.52148438 32.2253418 C47.49871426 36.1441395 47.51180546 40.0618402 47.53577423 43.9805975 C47.55025502 46.99960029 47.54561561 50.01834468 47.53526306 53.03735542 C47.53260099 54.48179823 47.53584729 55.92626475 47.54518127 57.37067986 C47.5553801 59.39286707 47.5370694 61.41513686 47.51757812 63.43725586 C47.51280457 65.16122841 47.51280457 65.16122841 47.50793457 66.92002869 C46.88937768 70.67078238 45.68679015 72.35081806 43 75 C40 75.5625 40 75.5625 37 75 C34.06654186 72.79229132 33.09735307 71.6483924 32.54589844 67.97558594 C32.5668457 66.82348633 32.58779297 65.67138672 32.609375 64.484375 C32.61936523 63.35741211 32.62935547 62.23044922 32.63964844 61.06933594 C32.69427246 58.93126465 32.69427246 58.93126465 32.75 56.75 C32.8325 52.2125 32.915 47.675 33 43 C23.1 43 13.2 43 3 43 C3.15814655 52.40927567 3.15814655 52.40927567 3.36035156 61.81762695 C3.37533691 63.57272583 3.37533691 63.57272583 3.390625 65.36328125 C3.41157227 66.56251221 3.43251953 67.76174316 3.45410156 68.99731445 C3 72 3 72 1.20214844 73.92651367 C-2.10658553 75.53942978 -4.50153737 74.84222249 -8 74 C-10.80725695 71.19274305 -10.25971107 69.4194321 -10.2746582 65.48657227 C-10.2823246 64.48386795 -10.2823246 64.48386795 -10.29014587 63.46090698 C-10.30407272 61.24598292 -10.3030828 59.03136895 -10.30078125 56.81640625 C-10.30466662 55.27945337 -10.30900096 53.74250156 -10.31376648 52.20555115 C-10.32123542 48.9816439 -10.32093267 45.75784615 -10.31567383 42.53393555 C-10.30987953 38.39985576 -10.32680559 34.26622405 -10.3500185 30.13221836 C-10.36474178 26.95722324 -10.36562946 23.78233636 -10.36250877 20.60731316 C-10.36302274 19.08305919 -10.36827461 17.55879927 -10.37832069 16.03457832 C-10.39064053 13.90369589 -10.38392119 11.77369038 -10.37231445 9.64282227 C-10.37294388 8.42973892 -10.3735733 7.21665558 -10.3742218 5.96681213 C-10 3 -10 3 -8.69548035 1.10826111 C-5.83107068 -0.76407781 -3.30406193 -0.35400664 0 0 Z " fill="#000000" transform="translate(307,30)"/>
<path d="M0 0 C1.21128319 -0.00855011 1.21128319 -0.00855011 2.44703674 -0.01727295 C4.15421237 -0.02671334 5.86140614 -0.03325312 7.56860352 -0.03710938 C10.17822 -0.0468259 12.78705232 -0.0778619 15.39648438 -0.109375 C17.05598491 -0.11590433 18.71549107 -0.12115507 20.375 -0.125 C21.54391029 -0.1435202 21.54391029 -0.1435202 22.73643494 -0.16241455 C25.9684618 -0.14914161 28.35584556 -0.00477583 31.24633789 1.50488281 C32.75390625 3.203125 32.75390625 3.203125 33.25390625 6.703125 C32.75390625 10.203125 32.75390625 10.203125 31.14355469 11.90356445 C27.95843368 13.63572619 25.63539821 13.54367095 22.01953125 13.49609375 C20.72402344 13.48642578 19.42851563 13.47675781 18.09375 13.46679688 C16.73046271 13.44173283 15.36718146 13.41633802 14.00390625 13.390625 C12.62501441 13.37557018 11.2461069 13.36188317 9.8671875 13.34960938 C6.49592561 13.31424649 3.12486639 13.26043981 -0.24609375 13.203125 C-0.24609375 19.143125 -0.24609375 25.083125 -0.24609375 31.203125 C1.37941406 31.16832031 3.00492188 31.13351563 4.6796875 31.09765625 C6.80858344 31.06952106 8.93749052 31.04222062 11.06640625 31.015625 C12.13826172 30.99048828 13.21011719 30.96535156 14.31445312 30.93945312 C15.34248047 30.92978516 16.37050781 30.92011719 17.4296875 30.91015625 C18.85148315 30.88659058 18.85148315 30.88659058 20.30200195 30.86254883 C22.75390625 31.203125 22.75390625 31.203125 24.55932617 32.53393555 C26.43387305 35.15324415 26.20858593 37.0853215 25.75390625 40.203125 C23.61458284 42.30102433 22.26501345 43.13275444 19.28027344 43.54370117 C17.9291748 43.5201355 17.9291748 43.5201355 16.55078125 43.49609375 C15.08125 43.4815918 15.08125 43.4815918 13.58203125 43.46679688 C12.05835938 43.4290918 12.05835938 43.4290918 10.50390625 43.390625 C9.47265625 43.37708984 8.44140625 43.36355469 7.37890625 43.34960938 C4.83701576 43.31430534 2.29539435 43.26049973 -0.24609375 43.203125 C-0.24609375 49.473125 -0.24609375 55.743125 -0.24609375 62.203125 C2.04070313 62.17992187 4.3275 62.15671875 6.68359375 62.1328125 C8.89436284 62.1172224 11.10512585 62.10507403 13.31591797 62.09326172 C14.85435723 62.08319382 16.39277732 62.06953854 17.93115234 62.05224609 C20.14034758 62.02803183 22.3492902 62.01665009 24.55859375 62.0078125 C25.24823212 61.99748993 25.93787048 61.98716736 26.64840698 61.97653198 C28.35191531 61.97613022 30.05476568 62.08121474 31.75390625 62.203125 C33.75390625 64.203125 33.75390625 64.203125 34.06640625 67.640625 C33.75390625 71.203125 33.75390625 71.203125 32.48118591 72.90151978 C29.41315885 75.21345579 25.54808113 74.62806777 21.8515625 74.6015625 C20.97745224 74.60443268 20.10334198 74.60730286 19.20274353 74.61026001 C17.35431267 74.61230119 15.50586023 74.60676756 13.6574707 74.59423828 C10.83039902 74.57820436 8.00476115 74.5940749 5.17773438 74.61328125 C3.38150726 74.61129845 1.58528104 74.60745401 -0.2109375 74.6015625 C-1.4782798 74.61067154 -1.4782798 74.61067154 -2.77122498 74.6199646 C-3.95749229 74.60577988 -3.95749229 74.60577988 -5.16772461 74.59130859 C-5.86038925 74.58892181 -6.55305389 74.58653503 -7.26670837 74.58407593 C-10.03152686 74.05196117 -11.30672425 73.25498283 -13.24609375 71.203125 C-13.74057007 68.31896973 -13.74057007 68.31896973 -13.73193359 64.75976562 C-13.73573029 64.1106572 -13.73952698 63.46154877 -13.74343872 62.79277039 C-13.75084631 60.64781314 -13.72946168 58.50421176 -13.70703125 56.359375 C-13.70464679 54.86869465 -13.70374151 53.37801127 -13.70425415 51.8873291 C-13.70112582 48.76339907 -13.68455896 45.63992788 -13.65771484 42.51611328 C-13.62373463 38.51102596 -13.61608624 34.50644291 -13.61760521 30.50122833 C-13.61706144 27.42314842 -13.60609326 24.34517884 -13.59160233 21.26713562 C-13.5852362 19.79034765 -13.58129586 18.31354717 -13.57981491 16.83674622 C-13.57547978 14.77310888 -13.55797522 12.71000674 -13.53662109 10.64648438 C-13.5289975 9.47194702 -13.5213739 8.29740967 -13.51351929 7.08728027 C-13.24609375 4.203125 -13.24609375 4.203125 -11.24609375 1.203125 C-7.47640565 -0.0534377 -3.92891632 0.02137138 0 0 Z " fill="#000000" transform="translate(551.24609375,30.796875)"/>
<path d="M0 0 C3.4375 1.0625 3.4375 1.0625 4.9152832 3.03076172 C6.97424882 7.13152114 8.60666593 11.34398231 10.23046875 15.6328125 C10.58136063 16.55085663 10.9322525 17.46890076 11.29377747 18.4147644 C12.03146256 20.34869087 12.76674066 22.28353697 13.49975586 24.21923828 C14.62471604 27.18675095 15.7600798 30.15013516 16.89648438 33.11328125 C17.61260693 34.99455282 18.32812283 36.87605546 19.04296875 38.7578125 C19.55382271 40.0891069 19.55382271 40.0891069 20.07499695 41.44729614 C20.3856459 42.27180267 20.69629486 43.0963092 21.01635742 43.94580078 C21.29154709 44.67018341 21.56673676 45.39456604 21.8502655 46.14089966 C22.4375 48.0625 22.4375 48.0625 22.4375 51.0625 C23.0975 51.0625 23.7575 51.0625 24.4375 51.0625 C24.53119873 50.26666504 24.62489746 49.47083008 24.72143555 48.65087891 C25.63080584 44.09379584 27.2117423 39.97002783 28.89453125 35.6484375 C29.23876633 34.75637604 29.5830014 33.86431458 29.93766785 32.94522095 C30.66513347 31.06647181 31.39569152 29.1889175 32.12915039 27.3125 C33.24723113 24.44460221 34.34763425 21.57032639 35.44726562 18.6953125 C36.15778428 16.86677141 36.86933807 15.03863214 37.58203125 13.2109375 C37.90822952 12.35358002 38.2344278 11.49622253 38.57051086 10.61288452 C41.6751648 2.76131514 41.6751648 2.76131514 45.4375 0.0625 C49.0625 0.125 49.0625 0.125 52.4375 1.0625 C54.93115285 4.80297927 54.75576043 6.62404104 54.4375 11.0625 C53.50186157 14.24458313 53.50186157 14.24458313 52.17431641 17.5168457 C51.93368973 18.11937668 51.69306305 18.72190765 51.44514465 19.34269714 C50.65481414 21.31284693 49.84738908 23.27545434 49.0390625 25.23828125 C48.48243372 26.61317103 47.92673312 27.98843691 47.37191772 29.36405945 C46.21078412 32.23578591 45.04170041 35.10409134 43.86621094 37.9699707 C42.35904253 41.6450526 40.86717165 45.32610005 39.38054848 49.00953388 C38.23528414 51.84479376 37.08451822 54.6777922 35.93180466 57.51003075 C35.3796767 58.86717142 34.82868847 60.22477633 34.27885818 61.5828495 C33.51096517 63.47574099 32.73540083 65.365515 31.95947266 67.25512695 C31.51979156 68.33099564 31.08011047 69.40686432 30.62710571 70.51533508 C29.4375 73.0625 29.4375 73.0625 27.4375 75.0625 C21.75191048 75.79612445 21.75191048 75.79612445 19.4375 75.0625 C15.27731269 69.80604338 13.15935387 63.77919242 10.77734375 57.56640625 C10.34619766 56.45949936 9.91505157 55.35259247 9.47084045 54.21214294 C8.09878267 50.68568306 6.73659341 47.1555118 5.375 43.625 C4.00776373 40.09889356 2.63851712 36.57357529 1.26844788 33.04856873 C0.418229 30.85900607 -0.4299813 28.66866209 -1.27589417 26.47743225 C-2.88924023 22.30672153 -4.49895665 18.15190398 -6.31811523 14.06616211 C-7.8206531 10.43937707 -8.07605449 7.95084112 -7.5625 4.0625 C-5.30850949 0.45611518 -4.2758518 0.07501494 0 0 Z " fill="#000000" transform="translate(448.5625,29.9375)"/>
<path d="M0 0 C2.80725695 2.80725695 2.25971107 4.5805679 2.2746582 8.51342773 C2.27976913 9.18189728 2.28488007 9.85036682 2.29014587 10.53909302 C2.30407272 12.75401708 2.3030828 14.96863105 2.30078125 17.18359375 C2.30466662 18.72054663 2.30900096 20.25749844 2.31376648 21.79444885 C2.32123542 25.0183561 2.32093267 28.24215385 2.31567383 31.46606445 C2.30987953 35.60014424 2.32680559 39.73377595 2.3500185 43.86778164 C2.36474178 47.04277676 2.36562946 50.21766364 2.36250877 53.39268684 C2.36302274 54.91694081 2.36827461 56.44120073 2.37832069 57.96542168 C2.39064053 60.09630411 2.38392119 62.22630962 2.37231445 64.35717773 C2.37294388 65.57026108 2.3735733 66.78334442 2.3742218 68.03318787 C2 71 2 71 0.69548035 72.89173889 C-2.16892932 74.76407781 -4.69593807 74.35400664 -8 74 C-9.6934967 72.89074707 -9.6934967 72.89074707 -11 71 C-11.38768005 68.03991699 -11.38768005 68.03991699 -11.40405273 64.37304688 C-11.41091599 63.7044313 -11.41777924 63.03581573 -11.42485046 62.34693909 C-11.44314875 60.13732659 -11.43927743 57.92842198 -11.43359375 55.71875 C-11.43815379 54.18322518 -11.44345884 52.64770241 -11.44947815 51.11218262 C-11.4584149 47.89420275 -11.45597948 44.67647099 -11.44604492 41.45849609 C-11.43454807 37.33214374 -11.45477384 33.20664622 -11.48396206 29.08040619 C-11.502296 25.90967357 -11.5020374 22.73914694 -11.49632454 19.56837463 C-11.49617101 18.04690857 -11.50224134 16.52542881 -11.51461601 15.00401306 C-11.52947435 12.87777842 -11.51889037 10.75313743 -11.50170898 8.62695312 C-11.50154282 7.41688599 -11.50137665 6.20681885 -11.50120544 4.96008301 C-11 2 -11 2 -9.19520569 0.07409668 C-5.891252 -1.54250157 -3.49501703 -0.84139299 0 0 Z " fill="#000000" transform="translate(404,31)"/>
<path d="M0 0 C2.64453125 1.0859375 2.64453125 1.0859375 3.61572266 2.71777344 C4.50310746 4.94171959 5.24880198 7.17367464 5.95703125 9.4609375 C6.22064453 10.24210938 6.48425781 11.02328125 6.75585938 11.828125 C7.82750034 15.07923318 8.64453125 17.63647846 8.64453125 21.0859375 C9.30453125 21.0859375 9.96453125 21.0859375 10.64453125 21.0859375 C10.89203125 19.8278125 11.13953125 18.5696875 11.39453125 17.2734375 C12.25521558 13.4876302 13.26394824 9.78111362 14.45703125 6.0859375 C14.75222656 5.1578125 15.04742187 4.2296875 15.3515625 3.2734375 C16.64453125 1.0859375 16.64453125 1.0859375 19.28125 0.2734375 C20.45107422 0.180625 20.45107422 0.180625 21.64453125 0.0859375 C25.11830033 6.53722293 27.45589535 13.10092932 29.64453125 20.0859375 C29.886875 19.46847656 30.12921875 18.85101563 30.37890625 18.21484375 C31.08027444 16.44254027 31.78908394 14.67316993 32.50390625 12.90625 C33.23676411 11.09418364 33.95666423 9.27679277 34.66015625 7.453125 C34.985 6.65132812 35.30984375 5.84953125 35.64453125 5.0234375 C36.07765625 3.92322266 36.07765625 3.92322266 36.51953125 2.80078125 C37.64453125 1.0859375 37.64453125 1.0859375 39.64453125 0.21484375 C40.30453125 0.17230469 40.96453125 0.12976563 41.64453125 0.0859375 C42.30453125 0.7459375 42.96453125 1.4059375 43.64453125 2.0859375 C43.29373967 6.94058314 42.07310593 11.14198676 40.359375 15.67578125 C39.91142578 16.87138672 39.46347656 18.06699219 39.00195312 19.29882812 C38.2990918 21.14250977 38.2990918 21.14250977 37.58203125 23.0234375 C37.1041663 24.29207253 36.62694684 25.5609509 36.15039062 26.83007812 C34.98808714 29.91781365 33.81929896 33.00292736 32.64453125 36.0859375 C30.99453125 36.0859375 29.34453125 36.0859375 27.64453125 36.0859375 C26.87181075 34.25339878 26.10146164 32.41986008 25.33203125 30.5859375 C24.90277344 29.565 24.47351563 28.5440625 24.03125 27.4921875 C22.49345716 23.71484846 21.06191171 19.90995515 19.64453125 16.0859375 C19.45866455 16.65626709 19.27279785 17.22659668 19.08129883 17.81420898 C18.22794628 20.39162294 17.34305683 22.95708184 16.45703125 25.5234375 C16.16505859 26.42126953 15.87308594 27.31910156 15.57226562 28.24414062 C15.27255859 29.09814453 14.97285156 29.95214844 14.6640625 30.83203125 C14.39698486 31.62279053 14.12990723 32.4135498 13.85473633 33.22827148 C12.64453125 35.0859375 12.64453125 35.0859375 10.01831055 35.85180664 C9.23496338 35.92906982 8.45161621 36.00633301 7.64453125 36.0859375 C4.25279438 29.68527831 1.71354087 23.17134903 -0.66796875 16.3359375 C-1.22581055 14.79486328 -1.22581055 14.79486328 -1.79492188 13.22265625 C-2.14103516 12.23394531 -2.48714844 11.24523437 -2.84375 10.2265625 C-3.15868408 9.33485352 -3.47361816 8.44314453 -3.7980957 7.52441406 C-4.39339198 4.92002546 -4.28979959 3.56220936 -3.35546875 1.0859375 C-2.35546875 0.0859375 -2.35546875 0.0859375 0 0 Z " fill="#000000" transform="translate(214.35546875,132.9140625)"/>
<path d="M0 0 C6.65329687 2.98601123 11.10565707 9.05598844 15.76953125 14.48828125 C17.63088346 16.58433987 19.52390414 18.63125099 21.44921875 20.66796875 C22.0723999 21.32796875 22.69558105 21.98796875 23.33764648 22.66796875 C24.5925078 23.99315869 25.85102261 25.31490052 27.11352539 26.6328125 C33.32664563 33.20187053 36.42370537 38.47759275 36.2734375 47.62890625 C35.49691986 54.36242351 31.77811702 58.7069734 26.68359375 62.87109375 C21.60875991 66.27394057 14.82107036 65.6437419 9 65 C5.96894703 63.71382619 3.5088617 62.12229993 1 60 C1.56302958 56.05879291 2.6791945 53.2491277 5 50 C7 50 7 50 9 51.9375 C9.66 52.618125 10.32 53.29875 11 54 C13.90295805 55.45147903 15.77261779 55.37239025 19 55 C22.48318005 53.00039664 24.36855504 51.8122827 25.69140625 48.015625 C26.13817378 44.01599185 25.52742412 41.74293075 23.18359375 38.44140625 C20.31281707 35.25003522 17.29451753 32.24939273 14.20703125 29.26953125 C9.93888974 24.82583636 8.6883054 20.26698118 7.078125 14.37890625 C5.42340182 9.19290789 2.79476777 4.6486304 0 0 Z " fill="#000000" transform="translate(135,48)"/>
<path d="M0 0 C0.495 1.485 0.495 1.485 1 3 C-0.17570277 4.79813364 -1.35721973 6.59265031 -2.5625 8.37109375 C-4.32234371 11.58950359 -5.14738931 14.7794437 -6.125 18.3125 C-8.26208667 25.63639812 -11.84284555 29.70642801 -17.4765625 34.73046875 C-20.65297109 37.58726966 -22.62810444 39.77805745 -23.875 43.875 C-24.03192798 47.79819961 -23.14773936 49.74136098 -21 53 C-17.65274664 55.62998478 -14.1175848 55.43342998 -10 55 C-7.2094183 53.10183458 -7.2094183 53.10183458 -5 51 C-4.34 51 -3.68 51 -3 51 C0.90359168 55.9073724 0.90359168 55.9073724 1.1875 59.125 C-1.25362943 62.97941489 -5.09166165 64.4989814 -9.3359375 65.61328125 C-15.90474941 66.63901056 -21.36598973 65.58792392 -27 62 C-31.58745225 57.36602186 -34.11617687 52.89449142 -34.3125 46.3125 C-34.14664913 36.76225393 -28.84656388 31.24621493 -22.50292969 24.57958984 C-20.08990714 22.0434859 -17.6983362 19.48728618 -15.30395508 16.93359375 C-14.00697497 15.55218353 -12.70745672 14.17315055 -11.4050293 12.796875 C-7.4741969 8.63159006 -3.69503344 4.37614559 0 0 Z " fill="#000000" transform="translate(48,47)"/>
<path d="M0 0 C4.153604 3.59979013 6.65116659 6.46424944 7.40625 11.953125 C7.59910843 18.73531312 7.36650149 23.32739138 2.6953125 28.4765625 C-2.01189664 32.70654307 -6.30126841 33.55590677 -12.46875 33.3515625 C-17.88793024 32.59889858 -21.70134313 30.36525466 -25.4375 26.4375 C-28.88965185 21.05214312 -28.58359552 15.19761998 -28 9 C-25.58974439 3.90138237 -21.36057319 -0.59072737 -16.0625 -2.8125 C-9.84787687 -3.37746574 -5.58387969 -2.9987502 0 0 Z M-20 9 C-21.73595176 11.94357037 -22.00865973 13.58433275 -21.9375 17 C-20.7592611 20.77036448 -18.97554581 22.45989992 -16 25 C-12.89046621 26.5547669 -10.43733239 26.28644437 -7 26 C-3.60450873 24.27022143 -1.57940666 22.93208897 0.4375 19.6875 C1.21661692 15.96505248 1.09434554 13.66927621 0 10 C-2.98492341 6.16584487 -5.78309781 4.23484077 -10.5625 3.3125 C-14.96678961 4.19335792 -16.91508159 5.77159701 -20 9 Z " fill="#000000" transform="translate(298,136)"/>
<path d="M0 0 C1.31355469 -0.02578125 2.62710937 -0.0515625 3.98046875 -0.078125 C8.03220141 0.26881235 10.39080644 1.09748061 13.8125 3.25 C16.2497021 6.70925459 16.82313139 8.63337962 16.75 12.875 C15.73630506 16.52430177 14.80353461 17.98406469 11.8125 20.25 C11.1525 20.25 10.4925 20.25 9.8125 20.25 C10.1734375 20.91386719 10.534375 21.57773438 10.90625 22.26171875 C11.3703125 23.14472656 11.834375 24.02773437 12.3125 24.9375 C12.7765625 25.80761719 13.240625 26.67773438 13.71875 27.57421875 C14.86068792 30.36788829 15.02754208 32.26629113 14.8125 35.25 C12.3375 35.745 12.3375 35.745 9.8125 36.25 C9.01852761 35.00146327 8.22742783 33.75109957 7.4375 32.5 C6.99664062 31.80390625 6.55578125 31.1078125 6.1015625 30.390625 C2.8125 24.92878788 2.8125 24.92878788 2.8125 21.25 C1.4925 21.25 0.1725 21.25 -1.1875 21.25 C-1.16429687 22.16523438 -1.14109375 23.08046875 -1.1171875 24.0234375 C-1.09914063 25.21195313 -1.08109375 26.40046875 -1.0625 27.625 C-1.03929687 28.80835938 -1.01609375 29.99171875 -0.9921875 31.2109375 C-1.1875 34.25 -1.1875 34.25 -3.1875 36.25 C-5.8125 35.875 -5.8125 35.875 -8.1875 35.25 C-8.2121519 30.42619198 -8.23033693 25.60242033 -8.24243164 20.77856445 C-8.24747174 19.13630536 -8.25430378 17.49405077 -8.26293945 15.85180664 C-8.27501926 13.49624521 -8.28073139 11.14074291 -8.28515625 8.78515625 C-8.29031754 8.04660904 -8.29547882 7.30806183 -8.30079651 6.5471344 C-8.3009925 4.78101912 -8.24944719 3.01502854 -8.1875 1.25 C-6.23283483 -0.70466517 -2.65864994 0.02016038 0 0 Z M-1.1875 7.25 C-1.1875 9.89 -1.1875 12.53 -1.1875 15.25 C3.77801325 15.60606813 3.77801325 15.60606813 8.25 13.75 C8.765625 13.255 9.28125 12.76 9.8125 12.25 C9.46463292 10.27463255 9.46463292 10.27463255 8.8125 8.25 C6.52544169 7.10647084 5.21985238 7.14665561 2.6875 7.1875 C0.769375 7.2184375 0.769375 7.2184375 -1.1875 7.25 Z " fill="#000000" transform="translate(329.1875,132.75)"/>
<path d="M0 0 C1.40475586 -0.00193359 1.40475586 -0.00193359 2.83789062 -0.00390625 C4.30838867 0.00189453 4.30838867 0.00189453 5.80859375 0.0078125 C6.79279297 0.00394531 7.77699219 0.00007812 8.79101562 -0.00390625 C9.72623047 -0.00261719 10.66144531 -0.00132812 11.625 0 C12.48681885 0.00112793 13.3486377 0.00225586 14.23657227 0.00341797 C16.24609375 0.1328125 16.24609375 0.1328125 17.24609375 1.1328125 C17.37109375 3.6328125 17.37109375 3.6328125 17.24609375 6.1328125 C16.24609375 7.1328125 16.24609375 7.1328125 12.6484375 7.23046875 C11.16012508 7.2237947 9.67182943 7.21183433 8.18359375 7.1953125 C7.42498047 7.19080078 6.66636719 7.18628906 5.88476562 7.18164062 C4.00517504 7.1698193 2.12562476 7.15188328 0.24609375 7.1328125 C0.24609375 9.7728125 0.24609375 12.4128125 0.24609375 15.1328125 C1.10074219 15.12121094 1.95539062 15.10960937 2.8359375 15.09765625 C3.94066406 15.08863281 5.04539062 15.07960937 6.18359375 15.0703125 C7.28574219 15.05871094 8.38789062 15.04710937 9.5234375 15.03515625 C12.24609375 15.1328125 12.24609375 15.1328125 13.24609375 16.1328125 C13.28673207 17.79898365 13.28881475 19.46669345 13.24609375 21.1328125 C10.60150996 22.45510439 8.56848074 22.22958444 5.62109375 22.1953125 C4.61820313 22.18628906 3.6153125 22.17726562 2.58203125 22.16796875 C1.81117188 22.15636719 1.0403125 22.14476562 0.24609375 22.1328125 C0.24609375 24.4428125 0.24609375 26.7528125 0.24609375 29.1328125 C1.30570313 29.12121094 2.3653125 29.10960937 3.45703125 29.09765625 C4.84505033 29.08827774 6.2330713 29.07917761 7.62109375 29.0703125 C8.31976562 29.06193359 9.0184375 29.05355469 9.73828125 29.04492188 C15.01953125 29.01953125 15.01953125 29.01953125 17.24609375 30.1328125 C17.28881475 31.79893155 17.28673207 33.46664135 17.24609375 35.1328125 C15.59215258 36.78675367 13.64293962 36.26280933 11.37109375 36.265625 C10.38625 36.26691406 9.40140625 36.26820313 8.38671875 36.26953125 C7.3503125 36.26566406 6.31390625 36.26179688 5.24609375 36.2578125 C3.69148437 36.26361328 3.69148437 36.26361328 2.10546875 36.26953125 C1.120625 36.26824219 0.13578125 36.26695312 -0.87890625 36.265625 C-1.78898438 36.26449707 -2.6990625 36.26336914 -3.63671875 36.26220703 C-5.75390625 36.1328125 -5.75390625 36.1328125 -6.75390625 35.1328125 C-6.84238368 32.61187174 -6.86917926 30.11850357 -6.8515625 27.59765625 C-6.85014755 26.84440567 -6.8487326 26.09115509 -6.84727478 25.31507874 C-6.84166001 22.9001169 -6.82910508 20.48524649 -6.81640625 18.0703125 C-6.81139315 16.43685029 -6.80682991 14.80338664 -6.80273438 13.16992188 C-6.79168579 9.15751665 -6.77441131 5.14518009 -6.75390625 1.1328125 C-4.3167441 -0.08576857 -2.72116568 0.00355675 0 0 Z " fill="#000000" transform="translate(568.75390625,132.8671875)"/>
<path d="M0 0 C3.53571429 0.53571429 3.53571429 0.53571429 5 2 C5.23363881 3.84891946 5.41303635 5.70488031 5.5625 7.5625 C5.68818359 9.08037109 5.68818359 9.08037109 5.81640625 10.62890625 C5.87699219 11.41136719 5.93757813 12.19382813 6 13 C7.33804687 11.57494141 7.33804687 11.57494141 8.703125 10.12109375 C9.88474564 8.8925834 11.06707429 7.66475376 12.25 6.4375 C12.83652344 5.80908203 13.42304688 5.18066406 14.02734375 4.53320312 C14.60097656 3.94345703 15.17460937 3.35371094 15.765625 2.74609375 C16.28930664 2.19622803 16.81298828 1.6463623 17.35253906 1.07983398 C19 0 19 0 21.20214844 0.32836914 C21.79543945 0.55000732 22.38873047 0.77164551 23 1 C23.69921875 2.75 23.69921875 2.75 24 5 C22.70703125 7 22.70703125 7 20.8125 9 C20.16796875 9.6909375 19.5234375 10.381875 18.859375 11.09375 C18.24578125 11.7228125 17.6321875 12.351875 17 13 C16.195625 13.825 15.39125 14.65 14.5625 15.5 C13.7890625 16.2425 13.7890625 16.2425 13 17 C14.45275106 20.42271192 16.31972114 22.39604561 19.0625 24.875 C21.81531185 27.54303322 22.9076928 28.70135905 24.0625 32.4375 C24 35 24 35 23 36 C20.7265625 36.3671875 20.7265625 36.3671875 18 36 C15.6484375 33.8828125 15.6484375 33.8828125 13.375 31.125 C10.96152008 28.23376637 9.14601725 26.09734484 6 24 C5.95101563 24.69867188 5.90203125 25.39734375 5.8515625 26.1171875 C5.77679688 27.02726562 5.70203125 27.93734375 5.625 28.875 C5.55539062 29.77992188 5.48578125 30.68484375 5.4140625 31.6171875 C5 34 5 34 3 36 C-0.53571429 35.46428571 -0.53571429 35.46428571 -2 34 C-2.11317284 31.64771681 -2.16416537 29.32588052 -2.16796875 26.97265625 C-2.17129715 26.26854111 -2.17462555 25.56442596 -2.17805481 24.838974 C-2.18312655 23.34683894 -2.18546306 21.8546925 -2.18530273 20.36254883 C-2.18748759 18.07549393 -2.20563549 15.78892247 -2.22460938 13.50195312 C-2.22754354 12.05468916 -2.22952818 10.60742289 -2.23046875 9.16015625 C-2.23765427 8.47365494 -2.24483978 7.78715363 -2.25224304 7.07984924 C-2.22882369 2.22882369 -2.22882369 2.22882369 0 0 Z " fill="#000000" transform="translate(362,133)"/>
<path d="M0 0 C3 1.6875 3 1.6875 5 4 C5.875 7.1875 5.875 7.1875 6 10 C5 11 5 11 2.6875 11.3125 C-0.79567849 10.90747925 -1.5768025 9.4231975 -4 7 C-6.66834966 6.66501699 -6.66834966 6.66501699 -9 7 C-10.57273568 9.8424854 -10.57273568 9.8424854 -11 13 C-10.33613281 13.03738281 -9.67226563 13.07476562 -8.98828125 13.11328125 C0.20470853 13.79772283 0.20470853 13.79772283 4 17 C6.33067577 20.21855225 6.46741137 23.10490526 6 27 C3.85036961 30.99217072 2.20695083 33.32030168 -2 35 C-6.64844143 35.72684721 -10.17214164 35.39135123 -14.4375 33.375 C-17.32450149 30.69924252 -18.13682957 28.79794988 -19 25 C-18.34 24.34 -17.68 23.68 -17 23 C-14.5 23.1875 -14.5 23.1875 -12 24 C-11.34 24.99 -10.68 25.98 -10 27 C-6.41642759 27.25015873 -6.41642759 27.25015873 -3 27 C-2.67 25.68 -2.34 24.36 -2 23 C-2.86625 22.71125 -3.7325 22.4225 -4.625 22.125 C-5.73875 21.75375 -6.8525 21.3825 -8 21 C-9.03125 20.71125 -10.0625 20.4225 -11.125 20.125 C-14.34497792 18.86500864 -15.89434558 17.72955202 -18 15 C-19.42600765 11.48251447 -19.01207256 10.03685308 -17.8125 6.375 C-13.73568025 -1.21631953 -7.83128425 -1.75860418 0 0 Z " fill="#000000" transform="translate(417,134)"/>
<path d="M0 0 C3.21515356 1.461883 3.71815677 3.75901355 5.07910156 6.94995117 C5.33979431 7.55579544 5.60048706 8.16163971 5.86907959 8.7858429 C6.41739613 10.06980132 6.95825828 11.35696496 7.4921875 12.64697266 C8.3065373 14.60901341 9.14764838 16.55781135 9.99316406 18.5065918 C14.42294842 28.95890419 14.42294842 28.95890419 14.06347656 34.93823242 C11.58847656 35.43323242 11.58847656 35.43323242 9.06347656 35.93823242 C6.06347656 31.18823242 6.06347656 31.18823242 6.06347656 28.93823242 C1.44347656 28.93823242 -3.17652344 28.93823242 -7.93652344 28.93823242 C-8.59652344 30.91823242 -9.25652344 32.89823242 -9.93652344 34.93823242 C-11.59267001 35.32042009 -13.26109368 35.65218344 -14.93652344 35.93823242 C-15.26652344 35.60823242 -15.59652344 35.27823242 -15.93652344 34.93823242 C-15.70015103 27.13794287 -12.57081559 20.57717356 -9.49902344 13.50073242 C-8.74395508 11.70732422 -8.74395508 11.70732422 -7.97363281 9.87768555 C-3.69470399 -0.11784671 -3.69470399 -0.11784671 0 0 Z M-1.93652344 13.93823242 C-3.42152344 17.89823242 -3.42152344 17.89823242 -4.93652344 21.93823242 C-2.29652344 21.93823242 0.34347656 21.93823242 3.06347656 21.93823242 C2.07347656 19.29823242 1.08347656 16.65823242 0.06347656 13.93823242 C-0.59652344 13.93823242 -1.25652344 13.93823242 -1.93652344 13.93823242 Z " fill="#000000" transform="translate(490.9365234375,133.061767578125)"/>
<path d="M0 0 C0.375 2.625 0.375 2.625 0 5 C-1 6 -1 6 -3.3125 6.1875 C-6 6 -6 6 -7.875 4.9375 C-11.1846654 3.4773535 -13.55577591 4.13894398 -17 5 C-19.3181362 6.89111111 -20.66914015 8.33828031 -22 11 C-22.39447548 15.18144011 -22.45035186 17.30946048 -20.125 20.875 C-16.79700448 24.20299552 -14.62968543 24.13471675 -9.97265625 24.23046875 C-7.67855334 24.11387977 -7.67855334 24.11387977 -5 22 C-2.3125 21.875 -2.3125 21.875 0 22 C0.33 23.65 0.66 25.3 1 27 C-4.94786624 31.98334739 -9.41296963 32.62928421 -17 32 C-22.4451873 30.21984261 -25.78226393 26.611739 -29 22 C-30.83329441 16.50011677 -30.80919559 11.0913828 -28.4375 5.75 C-25.70346745 0.89272941 -21.80896122 -1.96511955 -16.625 -3.875 C-10.79217077 -4.15275377 -4.52840031 -4.09016802 0 0 Z " fill="#000000" transform="translate(547,137)"/>
<path d="M0 0 C1.31355469 -0.02578125 2.62710937 -0.0515625 3.98046875 -0.078125 C8.03725735 0.26924528 10.39311433 1.0818562 13.8125 3.25 C16.62687575 7.47156362 16.73725051 11.29428575 15.8125 16.25 C13.49687668 19.4860288 10.5674513 20.99834957 6.8125 22.25 C5.25131572 22.31740865 3.6874748 22.33514456 2.125 22.3125 C0.701875 22.291875 -0.72125 22.27125 -2.1875 22.25 C-2.1875 26.54 -2.1875 30.83 -2.1875 35.25 C-4.6625 35.745 -4.6625 35.745 -7.1875 36.25 C-8.9204298 34.5170702 -8.31570046 32.28785664 -8.32644653 29.97851562 C-8.3244223 29.24310547 -8.32239807 28.50769531 -8.3203125 27.75 C-8.32126923 26.99912109 -8.32222595 26.24824219 -8.32321167 25.47460938 C-8.32389338 23.88411373 -8.32203972 22.29361533 -8.31787109 20.703125 C-8.31252267 18.26035345 -8.31781634 15.81776579 -8.32421875 13.375 C-8.32355797 11.83333293 -8.3222768 10.29166597 -8.3203125 8.75 C-8.32233673 8.01458984 -8.32436096 7.27917969 -8.32644653 6.52148438 C-8.29333963 -0.59322076 -6.49388882 0.04924276 0 0 Z M-2.1875 7.25 C-2.1875 9.89 -2.1875 12.53 -2.1875 15.25 C-0.75094146 15.33131463 0.6869483 15.38933559 2.125 15.4375 C2.92550781 15.47230469 3.72601563 15.50710937 4.55078125 15.54296875 C7.29101584 15.18801608 8.10421079 14.35633718 9.8125 12.25 C8.59242056 9.5594472 8.59242056 9.5594472 6.8125 7.25 C5.29321962 7.17820036 3.77082518 7.16607993 2.25 7.1875 C1.01056641 7.20103516 1.01056641 7.20103516 -0.25390625 7.21484375 C-1.21103516 7.23224609 -1.21103516 7.23224609 -2.1875 7.25 Z " fill="#000000" transform="translate(446.1875,132.75)"/>
<path d="M0 0 C8.91 0 17.82 0 27 0 C26.67 2.64 26.34 5.28 26 8 C17.75 8 9.5 8 1 8 C0.67 5.36 0.34 2.72 0 0 Z " fill="#000000" transform="translate(79,114)"/>
<path d="M0 0 C8.25 0 16.5 0 25 0 C25 2.64 25 5.28 25 8 C16.75 8 8.5 8 0 8 C0 5.36 0 2.72 0 0 Z " fill="#000000" transform="translate(80,125)"/>
<path d="M0 0 C2.375 1.375 2.375 1.375 3.17578125 3.59765625 C3.42867458 7.12328675 2.49403777 9.03646012 0.9375 12.1875 C0.46441406 13.16332031 -0.00867188 14.13914062 -0.49609375 15.14453125 C-0.86863281 15.88058594 -1.24117187 16.61664062 -1.625 17.375 C-4.595 16.385 -7.565 15.395 -10.625 14.375 C-10.11186537 9.24365375 -8.56765013 4.62662208 -5.625 0.375 C-2.625 -0.625 -2.625 -0.625 0 0 Z " fill="#000000" transform="translate(118.625,14.625)"/>
<path d="M0 0 C3.42838346 1.2856438 3.95657996 2.64019355 5.5 5.9375 C6.56466428 8.58689499 7.54201349 11.24601408 8.5 13.9375 C7.21086513 14.60904933 5.91859796 15.27458859 4.625 15.9375 C3.90570313 16.30875 3.18640625 16.68 2.4453125 17.0625 C0.5 17.9375 0.5 17.9375 -1.5 17.9375 C-4.22669709 12.56931511 -6.38257262 8.11550832 -5.5 1.9375 C-2.5 -0.0625 -2.5 -0.0625 0 0 Z " fill="#000000" transform="translate(69.5,14.0625)"/>
<path d="M0 0 C7.92 0 15.84 0 24 0 C24 1.32 24 2.64 24 4 C16.40793413 8.9752994 16.40793413 8.9752994 11.4375 9.0625 C7.35140294 7.79952454 3.72640418 6.08097896 0 4 C0 2.68 0 1.36 0 0 Z " fill="#000000" transform="translate(80,136)"/>
<path d="M0 0 C2.97 0 5.94 0 9 0 C9.36075949 5.41139241 9.36075949 5.41139241 7.8125 7.9375 C6 9 6 9 3.375 8.75 C1 8 1 8 0 7 C-0.04092937 4.66702567 -0.04241723 2.33294775 0 0 Z " fill="#000000" transform="translate(88,161)"/>
</svg>
